# AST/ASF file generated using VICON BodyLanguage
# -----------------------------------------------
:version 1.10
:name VICON
:units
  mass 1.0
  length 0.45
  angle deg
:documentation
   .ast/.asf automatically generated from VICON data using
   VICON BodyBuilder and BodyLanguage model FoxedUp or BRILLIANT.MOD
:root
   order TX TY TZ RX RY RZ
   axis XYZ
   position 0 0 0  
   orientation 0 -0 0 
:bonedata
  begin
     id 1 
     name lhipjoint
     direction 0.515797 -0.759363 0.396637 
     length 2.47888 
     axis 0 -0 0  XYZ
  end
  begin
     id 2 
     name lfemur
     direction 0.34202 -0.939693 0  
     length 6.81885  
     axis 0 -0 20  XYZ
    dof rx ry rz
    limits (-160.0 20.0)
           (-70.0 70.0)
           (-60.0 70.0)
  end
  begin
     id 3 
     name ltibia
     direction 0.342037 -0.939687 0   
     length 7.89258   
     axis 0 -0 20   XYZ
    dof rx
    limits (-10.0 170.0)
  end
  begin
     id 4 
     name lfoot
     direction 0.173497 -0.476678 0.861787   
     length 2.51543   
     axis -90 -1.13533e-015 20   XYZ
    dof rx rz
    limits (-45.0 90.0)
           (-70.0 20.0)
  end
  begin
     id 5 
     name ltoes
     direction 1.53564e-011 -4.21897e-011 1   
     length 1.21388   
     axis -90 -1.13533e-015 20   XYZ
    dof rx
    limits (-90.0 20.0)
  end
  begin
     id 6 
     name rhipjoint
     direction -0.489454 -0.772941 0.403729   
     length 2.43534  
     axis 0 -0 0  XYZ 
  end
  begin
     id 7 
     name rfemur
     direction -0.34202 -0.939693 0   
     length 7.10357   
     axis 0 -0 -20   XYZ
    dof rx ry rz
    limits (-160.0 20.0)
           (-70.0 70.0)
           (-70.0 60.0)
  end
  begin
     id 8 
     name rtibia
     direction -0.34202 -0.939693 0   
     length 9.16127   
     axis 0 -0 -20   XYZ
    dof rx
    limits (-10.0 170.0)
 end
 begin
     id 9 
     name rfoot
     direction -0.270974 -0.748671 0.605033   
     length 1.74894  
     axis -90 1.13533e-015 -20   XYZ
    dof rx rz
    limits (-45.0 90.0)
           (-20.0 70.0)
  end
  begin
     id 10 
     name rtoes
     direction -1.53557e-011 -4.21759e-011 1   
     length 0.787585   
     axis -90 1.13533e-015 -20   XYZ
    dof rx
    limits (-90.0 20.0)
  end
  begin
     id 11 
     name lowerback
     direction -0.0140249 0.999561 0.0260968   
     length 2.16963   
     axis 0 -0 0   XYZ
    dof rx ry rz
    limits (-20.0 45.0)
           (-30.0 30.0)
           (-30.0 30.0)
  end
  begin
     id 12 
     name upperback
     direction 0.00860018 0.999959 -0.002711   
     length 2.1726   
     axis 0 -0 0   XYZ
    dof rx ry rz
    limits (-20.0 45.0)
           (-30.0 30.0)
           (-30.0 30.0)
  end
  begin
     id 13 
     name thorax
     direction 0.015211 0.999782 -0.0143191   
     length 2.17061   
     axis 0 -0 0   XYZ
    dof rx ry rz
    limits (-20.0 45.0)
           (-30.0 30.0)
           (-30.0 30.0)
  end
  begin
     id 14 
     name lowerneck
     direction -0.0140143 0.999447 0.030145   
     length 2.26749   
     axis 0 -0 0   XYZ
    dof rx ry rz
    limits (-20.0 45.0)
           (-30.0 30.0)
           (-30.0 30.0)
  end
  begin
     id 15 
     name upperneck
     direction 0.118062 0.961438 -0.248392   
     length 2.22728   
     axis 0 -0 0   XYZ
    dof rx ry rz
    limits (-20.0 45.0)
           (-30.0 30.0)
           (-30.0 30.0)
  end
  begin
     id 16
     name head
     direction 0.0431885 0.9954 -0.085514  
     length 2.28786  
     axis 0 -0 0   XYZ
    dof rx ry rz
    limits (-20.0 45.0)
           (-30.0 30.0)
           (-30.0 30.0)
  end
  begin
     id 17 
     name lclavicle
     direction 0.912126 0.409548 0.0172323  
     length 4.31571  
     axis 0 -0 0   XYZ
    dof ry rz
    limits (-20.0 10.0)
           (0.0 20.0)
  end
  begin
     id 18 
     name lhumerus
     direction 1 -4.48977e-011 1.93091e-027   
     length 5.13658   
     axis 180 -30 -90   XYZ
    dof rx ry rz
    limits (-60.0 90.0)
           (-90.0 90.0)
           (-90.0 90.0)
  end
  begin
     id 19
     name lradius
     direction 1 -4.48916e-011 6.84018e-027   
     length 3.22473   
     axis 180 -30 -90   XYZ
    dof rx
    limits (-10.0 170.0)
  end
  begin
     id 20
     name lwrist
     direction 1 -4.48987e-011 7.01981e-027   
     length 1.61236   
     axis -4.37994e-015 90 90   XYZ
    dof ry
    limits (-180.0 0.0)
 end
  begin
     id 21 
     name lhand
     direction 1 -4.49037e-011 1.40335e-026   
     length 0.936406   
     axis -8.96029e-015 90 90   XYZ
    dof rx rz
    limits (-90.0 90.0)
           (-45.0 45.0)
  end
  begin
     id 22 
     name lfingers
     direction 1 -4.48886e-011 2.8104e-026   
     length 0.754955   
     axis -1.79203e-014 90 90   XYZ
    dof rx
    limits (0.0 90.0)
  end
  begin
     id 23
     name lthumb
     direction 0.707107 -6.34937e-011 0.707107   
     length 1.08397   
     axis -90 45 -4.48555e-014   XYZ
    dof rx rz
    limits (-45.0 45.0)
           (-45.0 45.0)
  end
  begin
     id 24 
     name rclavicle
     direction -0.947962 0.317997 0.0156638   
     length 4.86918  
     axis 0 -0 0   XYZ 
    dof ry rz
    limits (-10.0 20.0)
           (-20.0 0.0)
  end
  begin
     id 25 
     name rhumerus
     direction -1 -4.48951e-011 2.80534e-018  
     length 5.60911   
     axis 180 30 90   XYZ
    dof rx ry rz
    limits (-90.0 60.0)
           (-90.0 90.0)
           (-90.0 90.0)
  end
  begin
     id 26 
     name rradius
     direction -1 -4.4898e-011 2.11315e-027   
     length 3.38704   
     axis 180 30 90   XYZ
    dof rx
    limits (-10.0 170.0)
  end
  begin
     id 27 
     name rwrist
     direction -1 -4.48933e-011 7.02314e-027   
     length 1.69352   
     axis -4.37994e-015 -90 -90   XYZ
    dof ry
    limits (-180.0 0.0)
  end
  begin
     id 28
     name rhand
     direction -1 -4.48937e-011 1.40458e-026   
     length 0.755878   
     axis -8.96029e-015 -90 -90   XYZ
    dof rx rz
    limits (-90.0 90.0)
           (-45.0 45.0)
  end
  begin
     id 29
     name rfingers
     direction -1 -4.4901e-011 2.80737e-026   
     length 0.609409   
     axis -1.79203e-014 -90 -90   XYZ
    dof rx
    limits (0.0 90.0)
  end
  begin
     id 30
     name rthumb
     direction -0.707107 -6.34968e-011 0.707107   
     length 0.874992   
     axis -90 -45 4.48555e-014   XYZ
    dof rx rz
    limits (-45.0 45.0)
           (-45.0 45.0)
  end
:hierarchy
  begin
    root lhipjoint rhipjoint lowerback
    lhipjoint lfemur
    lfemur ltibia
    ltibia lfoot
    lfoot ltoes
    rhipjoint rfemur
    rfemur rtibia
    rtibia rfoot
    rfoot rtoes
    lowerback upperback
    upperback thorax
    thorax lowerneck lclavicle rclavicle
    lowerneck upperneck
    upperneck head
    lclavicle lhumerus
    lhumerus lradius
    lradius lwrist
    lwrist lhand lthumb
    lhand lfingers
    rclavicle rhumerus
    rhumerus rradius
    rradius rwrist
    rwrist rhand rthumb
    rhand rfingers
  end

#!OML:ASF C:\ViconDB\ViconDB\414\Spring2016\041811\Spring2016.ASF
:FULLY-SPECIFIED
:DEGREES
16
root 9.92332 18.1711 4.02755 -176.251 -0.979791 -178.589
lowerback -5.33302 1.20328 -1.95857
upperback -0.179709 1.70214 0.119337
thorax 2.74329 0.814621 1.34977
lowerneck -9.66398 -2.7201 -9.25251
upperneck 17.8132 -6.25232 15.4965
head 7.8138 -2.71863 6.08279
rclavicle -1.84559e-014 -1.03368e-014
rhumerus -47.9087 -20.0862 -78.8861
rradius 40.9249
rwrist 36.0344
rhand -32.3583 -13.0452
rfingers 7.12502
rthumb -5.59465 -42.9513
lclavicle -1.84559e-014 -1.03368e-014
lhumerus -41.1389 -1.1915 85.3401
lradius 28.5449
lwrist -34.3139
lhand -26.3841 13.9279
lfingers 7.12502
lthumb 0.174807 43.9076
rfemur -4.87589 -14.0137 18.2223
rtibia 20.6184
rfoot -170.175 4.70274
rtoes -17.8358
lfemur -7.9591 -9.51295 -12.7703
ltibia 25.5413
lfoot -25.2884 15.0337
ltoes -11.3826
17
root 9.92408 18.1713 4.02678 -176.252 -0.976463 -178.564
lowerback -5.35566 1.20466 -1.93168
upperback -0.160673 1.70362 0.111341
thorax 2.77658 0.815362 1.32748
lowerneck -9.58819 -2.82669 -9.37493
upperneck 17.6825 -6.40448 15.6493
head 7.78736 -2.79383 6.1388
rclavicle 1.14425e-014 1.19271e-015
rhumerus -47.8164 -20.1105 -78.973
rradius 40.8561
rwrist 35.9519
rhand -32.5349 -12.9972
rfingers 7.12502
rthumb -5.76518 -42.8987
lclavicle 1.14425e-014 1.19271e-015
lhumerus -41.0556 -1.54738 85.5724
lradius 28.6547
lwrist -33.9278
lhand -26.321 14.1952
lfingers 7.12502
lthumb 0.235672 44.1748
rfemur -4.88086 -14.0433 18.2536
rtibia 20.6437
rfoot -170.144 4.71876
rtoes -17.6987
lfemur -7.95111 -9.51532 -12.7347
ltibia 25.5268
lfoot -25.2751 15.0256
ltoes -11.3789
18
root 9.92417 18.1712 4.02593 -176.264 -0.962617 -178.57
lowerback -5.34662 1.19823 -1.94412
upperback -0.151369 1.69617 0.104115
thorax 2.78124 0.811503 1.32638
lowerneck -9.51017 -2.92097 -9.56999
upperneck 17.5547 -6.54815 15.8846
head 7.76557 -2.86518 6.23785
rclavicle -1.51263e-014 1.59028e-014
rhumerus -47.7627 -20.1467 -79.0119
rradius 40.812
rwrist 36.1071
rhand -32.5722 -12.9147
rfingers 7.12502
rthumb -5.80122 -42.8153
lclavicle -1.51263e-014 1.59028e-014
lhumerus -41.0253 -1.65262 85.6811
lradius 28.757
lwrist -33.7111
lhand -26.3261 14.0591
lfingers 7.12502
lthumb 0.230771 44.0387
rfemur -4.88399 -14.0107 18.2417
rtibia 20.6664
rfoot -170.148 4.70917
rtoes -17.6374
lfemur -7.92759 -9.47065 -12.7405
ltibia 25.5135
lfoot -25.2682 14.9946
ltoes -11.3711
19
root 9.92411 18.1686 4.02355 -176.311 -0.942343 -178.754
lowerback -5.32167 1.18789 -2.13666
upperback -0.131238 1.69542 0.0505209
thorax 2.78414 0.808741 1.37873
lowerneck -9.37252 -3.02369 -9.73125
upperneck 17.3806 -6.69188 16.0639
head 7.71552 -2.94075 6.31043
rclavicle -9.00743e-016 -2.0276e-014
rhumerus -47.7222 -20.1498 -79.0364
rradius 40.7805
rwrist 36.1886
rhand -32.526 -12.8246
rfingers 7.12502
rthumb -5.75656 -42.7264
lclavicle -9.00743e-016 -2.0276e-014
lhumerus -41.028 -1.39963 85.6411
lradius 28.8021
lwrist -33.7097
lhand -26.334 13.8082
lfingers 7.12502
lthumb 0.223198 43.7878
rfemur -4.83307 -14.0757 18.0051
rtibia 20.6907
rfoot -170.103 4.78928
rtoes -17.6471
lfemur -7.84596 -9.52353 -12.9723
ltibia 25.498
lfoot -25.2831 15.0575
ltoes -11.3627
20
root 9.92408 18.1676 4.02312 -176.329 -0.938181 -178.718
lowerback -5.30565 1.18644 -2.10795
upperback -0.119072 1.6916 0.0648628
thorax 2.78825 0.807212 1.37691
lowerneck -9.28731 -3.12656 -9.92107
upperneck 17.2322 -6.83058 16.2508
head 7.68471 -3.01188 6.39191
rclavicle -1.50517e-014 -1.19271e-015
rhumerus -47.643 -20.118 -79.1271
rradius 40.7563
rwrist 36.0666
rhand -32.6017 -12.9849
rfingers 7.12502
rthumb -5.82964 -42.8847
lclavicle -1.50517e-014 -1.19271e-015
lhumerus -40.9278 -1.37925 85.7056
lradius 28.8143
lwrist -33.7852
lhand -26.236 13.8964
lfingers 7.12502
lthumb 0.317807 43.8759
rfemur -4.82329 -14.0084 18.0472
rtibia 20.7161
rfoot -170.174 4.78832
rtoes -17.6473
lfemur -7.81971 -9.4922 -12.9329
ltibia 25.4805
lfoot -25.2659 15.0443
ltoes -11.3821
21
root 9.92401 18.167 4.02304 -176.339 -0.923452 -178.727
lowerback -5.29321 1.18451 -2.11384
upperback -0.115543 1.68969 0.0463372
thorax 2.78538 0.806309 1.36074
lowerneck -9.16784 -3.20241 -10.0182
upperneck 17.0761 -6.93329 16.3687
head 7.63478 -3.06667 6.43642
rclavicle -5.28643e-015 -3.97569e-015
rhumerus -47.5751 -20.0861 -79.229
rradius 40.7162
rwrist 35.9624
rhand -32.6061 -13.0774
rfingers 7.12502
rthumb -5.83393 -42.9771
lclavicle -5.28643e-015 -3.97569e-015
lhumerus -40.9023 -1.41052 85.7102
lradius 28.87
lwrist -33.9214
lhand -26.1768 13.938
lfingers 7.12502
lthumb 0.374986 43.9174
rfemur -4.8183 -14.0426 18.0296
rtibia 20.7399
rfoot -170.143 4.83367
rtoes -17.6338
lfemur -7.79749 -9.46808 -12.9451
ltibia 25.468
lfoot -25.268 15.0292
ltoes -11.3759
22
root 9.92474 18.1675 4.02259 -176.337 -0.916281 -178.719
lowerback -5.28067 1.16601 -2.12044
upperback -0.118197 1.66505 0.0478682
thorax 2.77631 0.794073 1.36384
lowerneck -9.05285 -3.27702 -10.1049
upperneck 16.9133 -7.02398 16.451
head 7.58048 -3.11645 6.46776
rclavicle -4.7025e-015 0
rhumerus -47.4985 -20.0519 -79.3108
rradius 40.6346
rwrist 36.0366
rhand -32.6202 -13.128
rfingers 7.12502
rthumb -5.84758 -43.0273
lclavicle -4.7025e-015 0
lhumerus -40.85 -1.42388 85.7661
lradius 28.8726
lwrist -33.8449
lhand -26.235 13.8725
lfingers 7.12502
lthumb 0.318777 43.852
rfemur -4.82712 -14.0443 18.0366
rtibia 20.7426
rfoot -170.124 4.82496
rtoes -17.6218
lfemur -7.80006 -9.45366 -12.9308
ltibia 25.47
lfoot -25.2704 15.0057
ltoes -11.3645
